<?xml version="1.0" encoding="UTF-8" standalone="no"?><!DOCTYPE svg PUBLIC "-//W3C//DTD SVG 1.1//EN" "http://www.w3.org/Graphics/SVG/1.1/DTD/svg11.dtd"><svg width="60px" height="60px" viewBox="0 0 60 60" version="1.1" xmlns="http://www.w3.org/2000/svg" xmlns:xlink="http://www.w3.org/1999/xlink" xml:space="preserve" xmlns:serif="http://www.serif.com/" style="fill-rule:evenodd;clip-rule:evenodd;stroke-linejoin:round;stroke-miterlimit:2;"><path d="M46.278,58.23l-23.2,-0c-1.16,-0 -1.934,-0.773 -1.934,-1.933c0,-2.9 -1.353,-4.64 -3.48,-7.347c-1.16,-1.353 -2.513,-3.093 -3.866,-5.22c-3.674,-5.8 -6.96,-12.76 -7.734,-15.273c-0.773,-2.514 -0.193,-4.254 0.58,-5.22c0.774,-1.16 2.32,-1.74 4.06,-1.74c2.32,-0 4.64,1.933 6.767,4.446l-0,-19.913c-0,-3.287 2.513,-5.8 5.8,-5.8c3.287,-0 5.8,2.513 5.8,5.8l-0,8.12c0.58,-0.193 1.16,-0.387 1.933,-0.387c2.127,0 3.867,1.16 4.834,2.707c0.773,-0.58 1.74,-0.773 2.706,-0.773c2.707,-0 4.834,1.74 5.607,4.253c0.58,-0.193 1.353,-0.387 2.127,-0.387c3.286,0 5.8,2.514 5.8,5.8l-0,5.8c-0,5.027 -0.967,9.087 -1.934,12.954c-0.966,3.866 -1.933,7.54 -1.933,12.18c-0,1.16 -0.773,1.933 -1.933,1.933Z" style="fill:#fff;fill-rule:nonzero;"/><path d="M45.078,56.23l-21.6,-0c-1.08,-0 -1.8,-0.72 -1.8,-1.8c0,-2.7 -1.26,-4.32 -3.24,-6.84c-1.08,-1.26 -2.34,-2.88 -3.6,-4.86c-3.42,-5.4 -6.48,-11.88 -7.2,-14.22c-0.72,-2.34 -0.18,-3.96 0.54,-4.86c0.72,-1.08 2.16,-1.62 3.78,-1.62c2.16,-0 4.32,1.8 6.3,4.14l0,-18.54c0,-3.06 2.34,-5.4 5.4,-5.4c3.06,-0 5.4,2.34 5.4,5.4l0,7.56c0.54,-0.18 1.08,-0.36 1.8,-0.36c1.98,-0 3.6,1.08 4.5,2.52c0.72,-0.54 1.62,-0.72 2.52,-0.72c2.52,-0 4.5,1.62 5.22,3.96c0.54,-0.18 1.26,-0.36 1.98,-0.36c3.06,-0 5.4,2.34 5.4,5.4l0,5.4c0,4.68 -0.9,8.46 -1.8,12.06c-0.9,3.6 -1.8,7.02 -1.8,11.34c0,1.08 -0.72,1.8 -1.8,1.8Z" style="fill-rule:nonzero;"/></svg>